<svg width="22" height="23" viewBox="0 0 22 23" fill="none" xmlns="http://www.w3.org/2000/svg">
<g id="Icon/Outline/bell">
<path id="Icon" d="M13.4996 15.9H17.9996L16.7352 14.6356C16.3923 14.2926 16.1996 13.8275 16.1996 13.3426V10.5C16.1996 8.1488 14.697 6.14857 12.5996 5.40726V5.09999C12.5996 4.10588 11.7937 3.29999 10.7996 3.29999C9.8055 3.29999 8.99961 4.10588 8.99961 5.09999V5.40726C6.90226 6.14857 5.39961 8.1488 5.39961 10.5V13.3426C5.39961 13.8275 5.20696 14.2926 4.86405 14.6356L3.59961 15.9H8.09961M13.4996 15.9V16.8C13.4996 18.2912 12.2908 19.5 10.7996 19.5C9.30844 19.5 8.09961 18.2912 8.09961 16.8V15.9M13.4996 15.9H8.09961" stroke="#3F3F46" stroke-width="1.2" stroke-linecap="round" stroke-linejoin="round"/>
</g>
</svg>
