<svg width="505" height="100" viewBox="0 0 505 100" fill="none" xmlns="http://www.w3.org/2000/svg">
  <path
    d="M0.103312 98.6221V21.1761H50.4734V32.9367H14.1328V53.9621H47.8642V65.7227H14.1328V86.8615H50.776V98.6221H0.103312ZM89.5178 99.7565C83.7195 99.7565 78.7405 98.4834 74.5808 95.9372C70.4463 93.3909 67.2572 89.8741 65.0135 85.3867C62.795 80.874 61.6857 75.6807 61.6857 69.8067C61.6857 63.9075 62.8202 58.7016 65.0891 54.189C67.358 49.6511 70.5597 46.1217 74.6942 43.6006C78.8539 41.0544 83.7699 39.7813 89.4422 39.7813C94.1565 39.7813 98.3288 40.651 101.959 42.3906C105.615 44.1049 108.526 46.5376 110.694 49.6889C112.863 52.815 114.098 56.4705 114.4 60.6554H101.316C100.787 57.8571 99.5263 55.5251 97.5347 53.6595C95.5683 51.7688 92.9338 50.8234 89.6313 50.8234C86.833 50.8234 84.375 51.5797 82.2573 53.0923C80.1396 54.5797 78.4884 56.7226 77.3035 59.5209C76.1438 62.3193 75.564 65.6722 75.564 69.5798C75.564 73.5378 76.1438 76.9412 77.3035 79.79C78.4631 82.6135 80.0892 84.7942 82.1817 86.3321C84.2993 87.8447 86.7825 88.601 89.6313 88.601C91.6481 88.601 93.4507 88.2228 95.0389 87.4665C96.6524 86.685 98.0011 85.5631 99.0851 84.101C100.169 82.6388 100.913 80.8614 101.316 78.769H114.4C114.073 82.8783 112.863 86.5211 110.77 89.6976C108.678 92.8489 105.829 95.3195 102.224 97.1095C98.6188 98.8742 94.3834 99.7565 89.5178 99.7565ZM139.33 64.5882V98.6221H125.641V21.1761H139.028V50.4074H139.708C141.07 47.1301 143.175 44.546 146.024 42.6553C148.897 40.7393 152.553 39.7813 156.99 39.7813C161.024 39.7813 164.54 40.6258 167.54 42.3149C170.541 44.004 172.86 46.4746 174.499 49.7267C176.162 52.9789 176.994 56.9495 176.994 61.6386V98.6221H163.305V63.7563C163.305 59.8487 162.297 56.8108 160.28 54.6427C158.288 52.4495 155.49 51.3528 151.885 51.3528C149.465 51.3528 147.297 51.8822 145.381 52.9411C143.49 53.9747 142.002 55.4747 140.918 57.4411C139.86 59.4075 139.33 61.7899 139.33 64.5882ZM216.285 99.7565C210.612 99.7565 205.696 98.5086 201.537 96.0128C197.377 93.517 194.15 90.0254 191.856 85.5379C189.587 81.0505 188.452 75.8068 188.452 69.8067C188.452 63.8067 189.587 58.5503 191.856 54.0377C194.15 49.5251 197.377 46.0208 201.537 43.525C205.696 41.0292 210.612 39.7813 216.285 39.7813C221.957 39.7813 226.873 41.0292 231.033 43.525C235.192 46.0208 238.407 49.5251 240.675 54.0377C242.97 58.5503 244.117 63.8067 244.117 69.8067C244.117 75.8068 242.97 81.0505 240.675 85.5379C238.407 90.0254 235.192 93.517 231.033 96.0128C226.873 98.5086 221.957 99.7565 216.285 99.7565ZM216.36 88.7901C219.436 88.7901 222.007 87.9455 224.075 86.2564C226.142 84.5421 227.68 82.248 228.688 79.374C229.722 76.5001 230.238 73.2984 230.238 69.7689C230.238 66.2143 229.722 63 228.688 60.126C227.68 57.2268 226.142 54.9201 224.075 53.2058C222.007 51.4915 219.436 50.6343 216.36 50.6343C213.209 50.6343 210.587 51.4915 208.495 53.2058C206.427 54.9201 204.877 57.2268 203.843 60.126C202.835 63 202.331 66.2143 202.331 69.7689C202.331 73.2984 202.835 76.5001 203.843 79.374C204.877 82.248 206.427 84.5421 208.495 86.2564C210.587 87.9455 213.209 88.7901 216.36 88.7901ZM298.429 42.4662C298.076 39.1636 296.589 36.5922 293.967 34.7518C291.37 32.9115 287.992 31.9913 283.832 31.9913C280.908 31.9913 278.4 32.4325 276.307 33.3149C274.215 34.1972 272.614 35.3947 271.505 36.9073C270.395 38.4199 269.828 40.1468 269.803 42.088C269.803 43.7015 270.168 45.1007 270.899 46.2855C271.656 47.4704 272.677 48.4788 273.963 49.3108C275.248 50.1175 276.673 50.7982 278.236 51.3528C279.799 51.9074 281.374 52.3738 282.963 52.752L290.223 54.5671C293.148 55.2478 295.958 56.168 298.656 57.3276C301.379 58.4873 303.811 59.9495 305.954 61.7142C308.122 63.479 309.837 65.6092 311.097 68.105C312.358 70.6009 312.988 73.5252 312.988 76.8782C312.988 81.4161 311.828 85.4119 309.509 88.8657C307.19 92.2943 303.837 94.9792 299.45 96.9204C295.089 98.8364 289.807 99.7943 283.605 99.7943C277.58 99.7943 272.349 98.8616 267.912 96.996C263.5 95.1304 260.046 92.4077 257.551 88.8279C255.08 85.248 253.744 80.8866 253.542 75.7437H267.345C267.546 78.4412 268.378 80.685 269.841 82.4749C271.303 84.2648 273.206 85.601 275.551 86.4833C277.921 87.3657 280.568 87.8069 283.492 87.8069C286.542 87.8069 289.215 87.3531 291.509 86.4455C293.828 85.5127 295.643 84.227 296.954 82.5883C298.265 80.9245 298.933 78.9833 298.958 76.7648C298.933 74.7479 298.341 73.0841 297.181 71.7731C296.021 70.437 294.395 69.3277 292.303 68.4454C290.236 67.5378 287.816 66.7311 285.042 66.0252L276.231 63.7563C269.853 62.1176 264.811 59.6344 261.105 56.3066C257.425 52.9537 255.584 48.504 255.584 42.9578C255.584 38.3947 256.82 34.3989 259.29 30.9703C261.786 27.5417 265.177 24.882 269.462 22.9912C273.748 21.0753 278.601 20.1173 284.021 20.1173C289.517 20.1173 294.332 21.0753 298.467 22.9912C302.627 24.882 305.891 27.5165 308.261 30.8947C310.631 34.2476 311.854 38.1048 311.929 42.4662H298.429ZM341.605 99.7943C337.924 99.7943 334.609 99.1389 331.659 97.8279C328.735 96.4918 326.416 94.5254 324.701 91.9287C323.012 89.3321 322.168 86.1304 322.168 82.3236C322.168 79.0463 322.773 76.3362 323.983 74.1933C325.193 72.0504 326.844 70.3361 328.937 69.0504C331.029 67.7647 333.386 66.7941 336.008 66.1386C338.655 65.458 341.391 64.9664 344.214 64.6638C347.617 64.3109 350.378 63.9958 352.496 63.7184C354.613 63.4159 356.151 62.9621 357.109 62.3571C358.092 61.7268 358.584 60.7562 358.584 59.4453V59.2184C358.584 56.3697 357.739 54.1638 356.05 52.6007C354.361 51.0377 351.928 50.2562 348.752 50.2562C345.399 50.2562 342.739 50.9873 340.773 52.4495C338.832 53.9117 337.521 55.6386 336.84 57.6302L324.058 55.815C325.067 52.2856 326.731 49.336 329.05 46.9662C331.369 44.5712 334.206 42.7813 337.559 41.5964C340.912 40.3863 344.617 39.7813 348.676 39.7813C351.475 39.7813 354.26 40.109 357.034 40.7645C359.807 41.42 362.34 42.504 364.634 44.0166C366.929 45.504 368.769 47.5335 370.155 50.1049C371.567 52.6763 372.273 55.8907 372.273 59.7478V98.6221H359.113V90.643H358.66C357.828 92.2565 356.655 93.7691 355.143 95.1809C353.655 96.5674 351.777 97.6893 349.508 98.5464C347.265 99.3784 344.63 99.7943 341.605 99.7943ZM345.159 89.7354C347.907 89.7354 350.29 89.1934 352.307 88.1094C354.323 87.0001 355.874 85.5379 356.958 83.7228C358.067 81.9077 358.622 79.9287 358.622 77.7858V70.9412C358.193 71.2941 357.462 71.6219 356.428 71.9244C355.42 72.2269 354.286 72.4916 353.025 72.7185C351.765 72.9454 350.517 73.1471 349.281 73.3236C348.046 73.5 346.975 73.6513 346.067 73.7773C344.025 74.0547 342.197 74.5084 340.584 75.1387C338.97 75.769 337.697 76.6513 336.764 77.7858C335.832 78.895 335.365 80.332 335.365 82.0967C335.365 84.6178 336.285 86.5211 338.126 87.8069C339.966 89.0926 342.311 89.7354 345.159 89.7354ZM415.458 40.5376V51.1259H381.122V40.5376H415.458ZM389.706 98.6221V35.0544C389.706 31.1468 390.513 27.8946 392.126 25.298C393.765 22.7013 395.958 20.7601 398.706 19.4744C401.454 18.1887 404.504 17.5458 407.857 17.5458C410.227 17.5458 412.332 17.7349 414.173 18.1131C416.013 18.4912 417.374 18.8316 418.257 19.1341L415.534 29.7224C414.954 29.5459 414.223 29.3694 413.341 29.193C412.458 28.9913 411.475 28.8905 410.391 28.8905C407.845 28.8905 406.042 29.5081 404.983 30.7434C403.95 31.9535 403.433 33.693 403.433 35.9619V98.6221H389.706ZM449.71 99.7565C443.886 99.7565 438.857 98.5464 434.621 96.1263C430.411 93.6809 427.172 90.227 424.903 85.7648C422.634 81.2774 421.499 75.9959 421.499 69.9202C421.499 63.9453 422.634 58.7016 424.903 54.189C427.197 49.6511 430.399 46.1217 434.508 43.6006C438.617 41.0544 443.445 39.7813 448.991 39.7813C452.571 39.7813 455.949 40.3611 459.126 41.5208C462.327 42.6553 465.151 44.42 467.596 46.815C470.067 49.2099 472.008 52.2604 473.42 55.9663C474.832 59.647 475.538 64.0336 475.538 69.126V73.3236H427.928V64.0966H462.416C462.39 61.4747 461.823 59.1428 460.714 57.1008C459.605 55.0335 458.054 53.4074 456.063 52.2226C454.096 51.0377 451.802 50.4452 449.18 50.4452C446.382 50.4452 443.924 51.1259 441.806 52.4873C439.689 53.8234 438.037 55.5881 436.852 57.7814C435.693 59.9495 435.1 62.3319 435.075 64.9285V72.9832C435.075 76.3614 435.693 79.2606 436.928 81.6808C438.163 84.0757 439.89 85.9161 442.109 87.2018C444.327 88.4623 446.924 89.0926 449.899 89.0926C451.89 89.0926 453.693 88.8153 455.306 88.2606C456.92 87.6808 458.319 86.8363 459.504 85.727C460.689 84.6178 461.584 83.2438 462.189 81.6051L474.97 83.0421C474.164 86.4203 472.626 89.3699 470.357 91.8909C468.113 94.3867 465.239 96.3279 461.735 97.7145C458.231 99.0759 454.222 99.7565 449.71 99.7565Z"
    fill="black" />
  <path
    d="M483.631 22.5753V8.53662H490.745C491.316 8.53662 491.938 8.70148 492.61 9.03121C493.282 9.34825 493.852 9.84284 494.322 10.515C494.804 11.1744 495.045 12.0114 495.045 13.026C495.045 14.0532 494.797 14.9282 494.303 15.6511C493.808 16.3612 493.206 16.9002 492.496 17.268C491.798 17.6358 491.139 17.8196 490.517 17.8196H485.381V15.5369H489.566C489.985 15.5369 490.435 15.3277 490.917 14.9092C491.411 14.4907 491.659 13.8629 491.659 13.026C491.659 12.1636 491.411 11.5802 490.917 11.2759C490.435 10.9715 490.01 10.8193 489.642 10.8193H486.713V22.5753H483.631ZM492.115 15.9554L495.615 22.5753H492.229L488.805 15.9554H492.115ZM488.957 30.9452C486.852 30.9452 484.88 30.5521 483.041 29.7658C481.202 28.9796 479.586 27.8889 478.191 26.494C476.796 25.099 475.705 23.482 474.919 21.6432C474.132 19.8043 473.739 17.8323 473.739 15.7272C473.739 13.622 474.132 11.65 474.919 9.81113C475.705 7.97228 476.796 6.35536 478.191 4.96037C479.586 3.56538 481.202 2.47475 483.041 1.68848C484.88 0.902215 486.852 0.50908 488.957 0.50908C491.063 0.50908 493.035 0.902215 494.873 1.68848C496.712 2.47475 498.329 3.56538 499.724 4.96037C501.119 6.35536 502.21 7.97228 502.996 9.81113C503.782 11.65 504.175 13.622 504.175 15.7272C504.175 17.8323 503.782 19.8043 502.996 21.6432C502.21 23.482 501.119 25.099 499.724 26.494C498.329 27.8889 496.712 28.9796 494.873 29.7658C493.035 30.5521 491.063 30.9452 488.957 30.9452ZM488.957 27.2929C491.088 27.2929 493.028 26.773 494.778 25.733C496.528 24.6931 497.923 23.2982 498.963 21.5481C500.003 19.798 500.523 17.8577 500.523 15.7272C500.523 13.5966 500.003 11.6563 498.963 9.90624C497.923 8.15617 496.528 6.76117 494.778 5.72127C493.028 4.68137 491.088 4.16142 488.957 4.16142C486.827 4.16142 484.886 4.68137 483.136 5.72127C481.386 6.76117 479.991 8.15617 478.951 9.90624C477.912 11.6563 477.392 13.5966 477.392 15.7272C477.392 17.8577 477.912 19.798 478.951 21.5481C479.991 23.2982 481.386 24.6931 483.136 25.733C484.886 26.773 486.827 27.2929 488.957 27.2929Z"
    fill="black" />
</svg>
